<?xml version="1.0" encoding="UTF-8" standalone="no"?>
<!DOCTYPE svg PUBLIC "-//W3C//DTD SVG 1.1//EN"
 "http://www.w3.org/Graphics/SVG/1.1/DTD/svg11.dtd">
<!-- Generated by graphviz version 2.43.0 (0)
 -->
<!-- Title: G Pages: 1 -->
<svg width="2517pt" height="780pt"
 viewBox="0.00 0.00 2517.25 780.00" xmlns="http://www.w3.org/2000/svg" xmlns:xlink="http://www.w3.org/1999/xlink">
<g id="graph0" class="graph" transform="scale(1 1) rotate(0) translate(4 776)">
<title>G</title>
<polygon fill="white" stroke="transparent" points="-4,4 -4,-776 2513.25,-776 2513.25,4 -4,4"/>
<g id="clust1" class="cluster">
<title>clusterSaude</title>
<polygon fill="none" stroke="black" points="530,-568 530,-764 1084,-764 1084,-568 530,-568"/>
</g>
<g id="clust2" class="cluster">
<title>clusterPrioridades</title>
<polygon fill="none" stroke="black" points="1225,-496 1225,-620 1451,-620 1451,-496 1225,-496"/>
</g>
<g id="clust3" class="cluster">
<title>clusterEconomia</title>
<polygon fill="none" stroke="black" points="130,-424 130,-764 522,-764 522,-424 130,-424"/>
</g>
<g id="clust4" class="cluster">
<title>clusterEducação</title>
<polygon fill="none" stroke="black" points="2133,-136 2133,-548 2487,-548 2487,-136 2133,-136"/>
</g>
<g id="clust5" class="cluster">
<title>clusterVidaEspiritual</title>
<polygon fill="none" stroke="black" points="1591,-208 1591,-548 1931,-548 1931,-208 1591,-208"/>
</g>
<g id="clust6" class="cluster">
<title>clusterPlano</title>
<polygon fill="none" stroke="black" points="1684,-352 1684,-476 1910,-476 1910,-352 1684,-352"/>
</g>
<g id="clust7" class="cluster">
<title>clusterTarefas</title>
<polygon fill="none" stroke="black" points="1939,-64 1939,-260 2125,-260 2125,-64 1939,-64"/>
</g>
<g id="clust8" class="cluster">
<title>clusterEvento</title>
<polygon fill="none" stroke="black" points="1216,-208 1216,-404 1555,-404 1555,-208 1216,-208"/>
</g>
<g id="clust9" class="cluster">
<title>clusterDispensa</title>
<polygon fill="none" stroke="black" points="8,-568 8,-620 122,-620 122,-568 8,-568"/>
</g>
<g id="clust10" class="cluster">
<title>clusterFamilia</title>
<polygon fill="none" stroke="black" points="930,-352 930,-476 1208,-476 1208,-352 930,-352"/>
</g>
<!-- Indivíduo -->
<g id="node1" class="node">
<title>Indivíduo</title>
<ellipse fill="none" stroke="black" cx="1440" cy="-18" rx="53.89" ry="18"/>
<text text-anchor="middle" x="1440" y="-14.3" font-family="Times,serif" font-size="14.00">Indivíduo</text>
</g>
<!-- Paciente -->
<g id="node2" class="node">
<title>Paciente</title>
<ellipse fill="none" stroke="black" cx="834" cy="-594" rx="50.09" ry="18"/>
<text text-anchor="middle" x="834" y="-590.3" font-family="Times,serif" font-size="14.00">Paciente</text>
</g>
<!-- Paciente&#45;&gt;Indivíduo -->
<g id="edge1" class="edge">
<title>Paciente&#45;&gt;Indivíduo</title>
<path fill="none" stroke="black" d="M834,-575.95C834,-549.29 834,-496.11 834,-451 834,-451 834,-451 834,-161 834,-116.59 824.11,-92.7 858,-64 896.81,-31.13 1232.57,-22.14 1375.75,-19.79"/>
<polygon fill="black" stroke="black" points="1376.19,-23.28 1386.13,-19.63 1376.07,-16.29 1376.19,-23.28"/>
</g>
<!-- Médico -->
<g id="node3" class="node">
<title>Médico</title>
<ellipse fill="none" stroke="black" cx="916" cy="-666" rx="44.39" ry="18"/>
<text text-anchor="middle" x="916" y="-662.3" font-family="Times,serif" font-size="14.00">Médico</text>
</g>
<!-- Médico&#45;&gt;Indivíduo -->
<g id="edge2" class="edge">
<title>Médico&#45;&gt;Indivíduo</title>
<path fill="none" stroke="black" d="M950.32,-654.6C966.93,-647.65 985.32,-636.65 995,-620 1006.61,-600.02 1003.16,-589.62 995,-568 975.76,-517.03 943.18,-522 914,-476 888.84,-436.33 872,-425.98 872,-379 872,-379 872,-379 872,-161 872,-58.01 1227.88,-29.09 1376.25,-21.51"/>
<polygon fill="black" stroke="black" points="1376.75,-24.99 1386.56,-21 1376.4,-18 1376.75,-24.99"/>
</g>
<!-- Tratamento -->
<g id="node4" class="node">
<title>Tratamento</title>
<ellipse fill="none" stroke="black" cx="852" cy="-738" rx="64.99" ry="18"/>
<text text-anchor="middle" x="852" y="-734.3" font-family="Times,serif" font-size="14.00">Tratamento</text>
</g>
<!-- Tratamento&#45;&gt;Paciente -->
<g id="edge3" class="edge">
<title>Tratamento&#45;&gt;Paciente</title>
<path fill="none" stroke="black" d="M793.38,-730.21C764.08,-723.52 731.1,-710.27 713,-684 703.92,-670.82 704.25,-661.39 713,-648 714.22,-646.14 758.54,-627.01 793.19,-612.26"/>
<polygon fill="black" stroke="black" points="794.83,-615.37 802.66,-608.23 792.09,-608.92 794.83,-615.37"/>
</g>
<!-- Tratamento&#45;&gt;Médico -->
<g id="edge4" class="edge">
<title>Tratamento&#45;&gt;Médico</title>
<path fill="none" stroke="black" d="M867.17,-720.41C875.33,-711.48 885.55,-700.31 894.52,-690.5"/>
<polygon fill="black" stroke="black" points="897.22,-692.73 901.38,-682.99 892.05,-688.01 897.22,-692.73"/>
</g>
<!-- Cuidado -->
<g id="node5" class="node">
<title>Cuidado</title>
<ellipse fill="none" stroke="black" cx="1027" cy="-666" rx="48.99" ry="18"/>
<text text-anchor="middle" x="1027" y="-662.3" font-family="Times,serif" font-size="14.00">Cuidado</text>
</g>
<!-- Tratamento&#45;&gt;Cuidado -->
<g id="edge5" class="edge">
<title>Tratamento&#45;&gt;Cuidado</title>
<path fill="none" stroke="black" d="M887.41,-722.83C915.89,-711.44 955.94,-695.42 985.85,-683.46"/>
<polygon fill="black" stroke="black" points="987.18,-686.7 995.17,-679.73 984.58,-680.2 987.18,-686.7"/>
</g>
<!-- Diagnóstico -->
<g id="node6" class="node">
<title>Diagnóstico</title>
<ellipse fill="none" stroke="black" cx="788" cy="-666" rx="65.79" ry="18"/>
<text text-anchor="middle" x="788" y="-662.3" font-family="Times,serif" font-size="14.00">Diagnóstico</text>
</g>
<!-- Tratamento&#45;&gt;Diagnóstico -->
<g id="edge6" class="edge">
<title>Tratamento&#45;&gt;Diagnóstico</title>
<path fill="none" stroke="black" d="M836.83,-720.41C828.9,-711.73 819.04,-700.95 810.26,-691.34"/>
<polygon fill="black" stroke="black" points="812.83,-688.97 803.5,-683.96 807.67,-693.7 812.83,-688.97"/>
</g>
<!-- Medicamento -->
<g id="node8" class="node">
<title>Medicamento</title>
<ellipse fill="none" stroke="black" cx="611" cy="-666" rx="73.39" ry="18"/>
<text text-anchor="middle" x="611" y="-662.3" font-family="Times,serif" font-size="14.00">Medicamento</text>
</g>
<!-- Tratamento&#45;&gt;Medicamento -->
<g id="edge9" class="edge">
<title>Tratamento&#45;&gt;Medicamento</title>
<path fill="none" stroke="black" d="M808.91,-724.49C769.1,-712.92 709.72,-695.67 666.4,-683.09"/>
<polygon fill="black" stroke="black" points="667.16,-679.67 656.58,-680.24 665.21,-686.39 667.16,-679.67"/>
</g>
<!-- Necessidade -->
<g id="node15" class="node">
<title>Necessidade</title>
<ellipse fill="none" stroke="black" cx="1338" cy="-522" rx="69.59" ry="18"/>
<text text-anchor="middle" x="1338" y="-518.3" font-family="Times,serif" font-size="14.00">Necessidade</text>
</g>
<!-- Tratamento&#45;&gt;Necessidade -->
<g id="edge15" class="edge">
<title>Tratamento&#45;&gt;Necessidade</title>
<path fill="none" stroke="black" d="M915.88,-734.41C1056.27,-727.25 1384.52,-701.91 1452,-620 1466.7,-602.16 1465,-587.11 1452,-568 1441.24,-552.19 1423.99,-541.94 1406.13,-535.28"/>
<polygon fill="black" stroke="black" points="1406.78,-531.81 1396.18,-531.95 1404.55,-538.45 1406.78,-531.81"/>
</g>
<!-- Lista de Tarefas -->
<g id="node10" class="node">
<title>Lista de Tarefas</title>
<ellipse fill="none" stroke="black" cx="2032" cy="-234" rx="85.29" ry="18"/>
<text text-anchor="middle" x="2032" y="-230.3" font-family="Times,serif" font-size="14.00">Lista de Tarefas</text>
</g>
<!-- Cuidado&#45;&gt;Lista de Tarefas -->
<g id="edge11" class="edge">
<title>Cuidado&#45;&gt;Lista de Tarefas</title>
<path fill="none" stroke="black" d="M1075.23,-663.3C1274.99,-655.64 2027,-620.32 2027,-523 2027,-523 2027,-523 2027,-377 2027,-336.97 2029.01,-290.63 2030.48,-262.07"/>
<polygon fill="black" stroke="black" points="2033.98,-262.21 2031.01,-252.04 2026.99,-261.84 2033.98,-262.21"/>
</g>
<!-- Diagnóstico&#45;&gt;Paciente -->
<g id="edge8" class="edge">
<title>Diagnóstico&#45;&gt;Paciente</title>
<path fill="none" stroke="black" d="M799.14,-648.05C804.62,-639.71 811.33,-629.49 817.41,-620.25"/>
<polygon fill="black" stroke="black" points="820.4,-622.07 822.97,-611.79 814.55,-618.22 820.4,-622.07"/>
</g>
<!-- Exame -->
<g id="node7" class="node">
<title>Exame</title>
<ellipse fill="none" stroke="black" cx="944" cy="-594" rx="42.49" ry="18"/>
<text text-anchor="middle" x="944" y="-590.3" font-family="Times,serif" font-size="14.00">Exame</text>
</g>
<!-- Diagnóstico&#45;&gt;Exame -->
<g id="edge7" class="edge">
<title>Diagnóstico&#45;&gt;Exame</title>
<path fill="none" stroke="black" d="M822.72,-650.64C843.27,-642.02 869.75,-630.67 893,-620 898.04,-617.69 903.33,-615.18 908.51,-612.68"/>
<polygon fill="black" stroke="black" points="910.19,-615.76 917.65,-608.23 907.13,-609.46 910.19,-615.76"/>
</g>
<!-- Medicamento Produto -->
<g id="node9" class="node">
<title>Medicamento Produto</title>
<ellipse fill="none" stroke="black" cx="652" cy="-594" rx="113.98" ry="18"/>
<text text-anchor="middle" x="652" y="-590.3" font-family="Times,serif" font-size="14.00">Medicamento Produto</text>
</g>
<!-- Medicamento&#45;&gt;Medicamento Produto -->
<g id="edge10" class="edge">
<title>Medicamento&#45;&gt;Medicamento Produto</title>
<path fill="none" stroke="black" d="M620.92,-648.05C625.69,-639.92 631.5,-630 636.81,-620.94"/>
<polygon fill="black" stroke="black" points="639.85,-622.67 641.88,-612.28 633.81,-619.14 639.85,-622.67"/>
</g>
<!-- Produto -->
<g id="node11" class="node">
<title>Produto</title>
<ellipse fill="none" stroke="black" cx="338" cy="-522" rx="48.19" ry="18"/>
<text text-anchor="middle" x="338" y="-518.3" font-family="Times,serif" font-size="14.00">Produto</text>
</g>
<!-- Medicamento Produto&#45;&gt;Produto -->
<g id="edge12" class="edge">
<title>Medicamento Produto&#45;&gt;Produto</title>
<path fill="none" stroke="black" d="M585.73,-579.28C566.5,-575.45 545.44,-571.41 526,-568 467.99,-557.82 451.56,-564.41 395,-548 388.38,-546.08 381.51,-543.56 374.94,-540.86"/>
<polygon fill="black" stroke="black" points="376.15,-537.57 365.58,-536.83 373.38,-544 376.15,-537.57"/>
</g>
<!-- Tarefa -->
<g id="node12" class="node">
<title>Tarefa</title>
<ellipse fill="none" stroke="black" cx="2001" cy="-162" rx="40.09" ry="18"/>
<text text-anchor="middle" x="2001" y="-158.3" font-family="Times,serif" font-size="14.00">Tarefa</text>
</g>
<!-- Lista de Tarefas&#45;&gt;Tarefa -->
<g id="edge13" class="edge">
<title>Lista de Tarefas&#45;&gt;Tarefa</title>
<path fill="none" stroke="black" d="M2024.5,-216.05C2020.92,-207.97 2016.55,-198.12 2012.56,-189.11"/>
<polygon fill="black" stroke="black" points="2015.68,-187.52 2008.44,-179.79 2009.28,-190.35 2015.68,-187.52"/>
</g>
<!-- Responsável -->
<g id="node13" class="node">
<title>Responsável</title>
<ellipse fill="none" stroke="black" cx="2016" cy="-90" rx="68.79" ry="18"/>
<text text-anchor="middle" x="2016" y="-86.3" font-family="Times,serif" font-size="14.00">Responsável</text>
</g>
<!-- Lista de Tarefas&#45;&gt;Responsável -->
<g id="edge14" class="edge">
<title>Lista de Tarefas&#45;&gt;Responsável</title>
<path fill="none" stroke="black" d="M2040.31,-215.81C2048.66,-196.14 2059.09,-163.12 2050,-136 2047.6,-128.85 2043.57,-121.93 2039.11,-115.75"/>
<polygon fill="black" stroke="black" points="2041.8,-113.51 2032.86,-107.83 2036.3,-117.85 2041.8,-113.51"/>
</g>
<!-- Marca -->
<g id="node26" class="node">
<title>Marca</title>
<ellipse fill="none" stroke="black" cx="338" cy="-450" rx="40.09" ry="18"/>
<text text-anchor="middle" x="338" y="-446.3" font-family="Times,serif" font-size="14.00">Marca</text>
</g>
<!-- Produto&#45;&gt;Marca -->
<g id="edge29" class="edge">
<title>Produto&#45;&gt;Marca</title>
<path fill="none" stroke="black" d="M338,-503.7C338,-495.98 338,-486.71 338,-478.11"/>
<polygon fill="black" stroke="black" points="341.5,-478.1 338,-468.1 334.5,-478.1 341.5,-478.1"/>
</g>
<!-- Tarefa&#45;&gt;Responsável -->
<g id="edge62" class="edge">
<title>Tarefa&#45;&gt;Responsável</title>
<path fill="none" stroke="black" d="M2004.63,-144.05C2006.3,-136.26 2008.32,-126.82 2010.2,-118.08"/>
<polygon fill="black" stroke="black" points="2013.63,-118.79 2012.3,-108.28 2006.78,-117.32 2013.63,-118.79"/>
</g>
<!-- Responsável&#45;&gt;Indivíduo -->
<g id="edge61" class="edge">
<title>Responsável&#45;&gt;Indivíduo</title>
<path fill="none" stroke="black" d="M1954.9,-81.58C1843.72,-68.06 1609.67,-39.62 1499.6,-26.24"/>
<polygon fill="black" stroke="black" points="1500.01,-22.77 1489.66,-25.03 1499.16,-29.72 1500.01,-22.77"/>
</g>
<!-- Lista de Prioridades -->
<g id="node14" class="node">
<title>Lista de Prioridades</title>
<ellipse fill="none" stroke="black" cx="1338" cy="-594" rx="104.78" ry="18"/>
<text text-anchor="middle" x="1338" y="-590.3" font-family="Times,serif" font-size="14.00">Lista de Prioridades</text>
</g>
<!-- Lista de Prioridades&#45;&gt;Necessidade -->
<g id="edge16" class="edge">
<title>Lista de Prioridades&#45;&gt;Necessidade</title>
<path fill="none" stroke="black" d="M1338,-575.7C1338,-567.98 1338,-558.71 1338,-550.11"/>
<polygon fill="black" stroke="black" points="1341.5,-550.1 1338,-540.1 1334.5,-550.1 1341.5,-550.1"/>
</g>
<!-- Plano de Vida -->
<g id="node17" class="node">
<title>Plano de Vida</title>
<ellipse fill="none" stroke="black" cx="1673" cy="-522" rx="74.19" ry="18"/>
<text text-anchor="middle" x="1673" y="-518.3" font-family="Times,serif" font-size="14.00">Plano de Vida</text>
</g>
<!-- Necessidade&#45;&gt;Plano de Vida -->
<g id="edge18" class="edge">
<title>Necessidade&#45;&gt;Plano de Vida</title>
<path fill="none" stroke="black" d="M1407.68,-522C1468.06,-522 1528.44,-522 1588.81,-522"/>
<polygon fill="black" stroke="black" points="1588.9,-525.5 1598.9,-522 1588.9,-518.5 1588.9,-525.5"/>
</g>
<!-- Marco da Vida -->
<g id="node18" class="node">
<title>Marco da Vida</title>
<ellipse fill="none" stroke="black" cx="1123" cy="-450" rx="77.19" ry="18"/>
<text text-anchor="middle" x="1123" y="-446.3" font-family="Times,serif" font-size="14.00">Marco da Vida</text>
</g>
<!-- Necessidade&#45;&gt;Marco da Vida -->
<g id="edge19" class="edge">
<title>Necessidade&#45;&gt;Marco da Vida</title>
<path fill="none" stroke="black" d="M1296.55,-507.5C1262.16,-496.31 1213.05,-480.32 1175.84,-468.2"/>
<polygon fill="black" stroke="black" points="1176.76,-464.82 1166.17,-465.06 1174.59,-471.48 1176.76,-464.82"/>
</g>
<!-- Membro -->
<g id="node19" class="node">
<title>Membro</title>
<ellipse fill="none" stroke="black" cx="1056" cy="-378" rx="50.09" ry="18"/>
<text text-anchor="middle" x="1056" y="-374.3" font-family="Times,serif" font-size="14.00">Membro</text>
</g>
<!-- Necessidade&#45;&gt;Membro -->
<g id="edge20" class="edge">
<title>Necessidade&#45;&gt;Membro</title>
<path fill="none" stroke="black" d="M1269.74,-518.38C1159.25,-513.42 951.29,-500.87 929,-476 913.58,-458.79 915.66,-442.87 929,-424 944.67,-401.82 972.25,-390.5 997.7,-384.76"/>
<polygon fill="black" stroke="black" points="998.58,-388.15 1007.7,-382.75 997.21,-381.29 998.58,-388.15"/>
</g>
<!-- Compra -->
<g id="node16" class="node">
<title>Compra</title>
<ellipse fill="none" stroke="black" cx="351" cy="-594" rx="47.39" ry="18"/>
<text text-anchor="middle" x="351" y="-590.3" font-family="Times,serif" font-size="14.00">Compra</text>
</g>
<!-- Compra&#45;&gt;Produto -->
<g id="edge28" class="edge">
<title>Compra&#45;&gt;Produto</title>
<path fill="none" stroke="black" d="M347.79,-575.7C346.35,-567.98 344.63,-558.71 343.04,-550.11"/>
<polygon fill="black" stroke="black" points="346.44,-549.3 341.18,-540.1 339.56,-550.58 346.44,-549.3"/>
</g>
<!-- Compra&#45;&gt;Necessidade -->
<g id="edge17" class="edge">
<title>Compra&#45;&gt;Necessidade</title>
<path fill="none" stroke="black" d="M377.56,-578.95C386.92,-574.65 397.69,-570.42 408,-568 568.49,-530.28 1063.65,-524.1 1258.27,-523.15"/>
<polygon fill="black" stroke="black" points="1258.44,-526.65 1268.43,-523.1 1258.41,-519.65 1258.44,-526.65"/>
</g>
<!-- Consumidor -->
<g id="node21" class="node">
<title>Consumidor</title>
<ellipse fill="none" stroke="black" cx="205" cy="-522" rx="66.89" ry="18"/>
<text text-anchor="middle" x="205" y="-518.3" font-family="Times,serif" font-size="14.00">Consumidor</text>
</g>
<!-- Compra&#45;&gt;Consumidor -->
<g id="edge26" class="edge">
<title>Compra&#45;&gt;Consumidor</title>
<path fill="none" stroke="black" d="M322.85,-579.5C300.88,-568.97 270.06,-554.19 245.45,-542.39"/>
<polygon fill="black" stroke="black" points="246.88,-539.2 236.35,-538.03 243.86,-545.51 246.88,-539.2"/>
</g>
<!-- Vendedor -->
<g id="node25" class="node">
<title>Vendedor</title>
<ellipse fill="none" stroke="black" cx="459" cy="-522" rx="54.69" ry="18"/>
<text text-anchor="middle" x="459" y="-518.3" font-family="Times,serif" font-size="14.00">Vendedor</text>
</g>
<!-- Compra&#45;&gt;Vendedor -->
<g id="edge27" class="edge">
<title>Compra&#45;&gt;Vendedor</title>
<path fill="none" stroke="black" d="M373.9,-578.15C389.3,-568.18 409.81,-554.88 426.84,-543.84"/>
<polygon fill="black" stroke="black" points="428.89,-546.68 435.38,-538.31 425.09,-540.81 428.89,-546.68"/>
</g>
<!-- Plano de Vida&#45;&gt;Lista de Tarefas -->
<g id="edge56" class="edge">
<title>Plano de Vida&#45;&gt;Lista de Tarefas</title>
<path fill="none" stroke="black" d="M1741.61,-515.06C1803.05,-508.53 1887.44,-496.19 1914,-476 1950.83,-448 2001.55,-318.35 2022.43,-261.66"/>
<polygon fill="black" stroke="black" points="2025.83,-262.56 2025.97,-251.96 2019.25,-260.16 2025.83,-262.56"/>
</g>
<!-- Plano de Vida&#45;&gt;Marco da Vida -->
<g id="edge57" class="edge">
<title>Plano de Vida&#45;&gt;Marco da Vida</title>
<path fill="none" stroke="black" d="M1609.1,-512.87C1507.26,-499.91 1308.53,-474.61 1199.36,-460.72"/>
<polygon fill="black" stroke="black" points="1199.76,-457.24 1189.4,-459.45 1198.88,-464.19 1199.76,-457.24"/>
</g>
<!-- Fiel -->
<g id="node35" class="node">
<title>Fiel</title>
<ellipse fill="none" stroke="black" cx="1670" cy="-234" rx="28.7" ry="18"/>
<text text-anchor="middle" x="1670" y="-230.3" font-family="Times,serif" font-size="14.00">Fiel</text>
</g>
<!-- Plano de Vida&#45;&gt;Fiel -->
<g id="edge49" class="edge">
<title>Plano de Vida&#45;&gt;Fiel</title>
<path fill="none" stroke="black" d="M1660.73,-503.99C1633.96,-464.63 1575.38,-364.78 1610,-288 1616.48,-273.62 1629,-261.58 1640.94,-252.63"/>
<polygon fill="black" stroke="black" points="1643.26,-255.27 1649.43,-246.66 1639.24,-249.54 1643.26,-255.27"/>
</g>
<!-- Plano -->
<g id="node36" class="node">
<title>Plano</title>
<ellipse fill="none" stroke="black" cx="1763" cy="-450" rx="36.29" ry="18"/>
<text text-anchor="middle" x="1763" y="-446.3" font-family="Times,serif" font-size="14.00">Plano</text>
</g>
<!-- Plano de Vida&#45;&gt;Plano -->
<g id="edge53" class="edge">
<title>Plano de Vida&#45;&gt;Plano</title>
<path fill="none" stroke="black" d="M1694.33,-504.41C1706.9,-494.63 1722.91,-482.18 1736.31,-471.76"/>
<polygon fill="black" stroke="black" points="1738.52,-474.47 1744.27,-465.57 1734.22,-468.95 1738.52,-474.47"/>
</g>
<!-- Vida Sacramental -->
<g id="node41" class="node">
<title>Vida Sacramental</title>
<ellipse fill="none" stroke="black" cx="1712" cy="-306" rx="92.88" ry="18"/>
<text text-anchor="middle" x="1712" y="-302.3" font-family="Times,serif" font-size="14.00">Vida Sacramental</text>
</g>
<!-- Plano de Vida&#45;&gt;Vida Sacramental -->
<g id="edge51" class="edge">
<title>Plano de Vida&#45;&gt;Vida Sacramental</title>
<path fill="none" stroke="black" d="M1670.55,-503.62C1666.83,-472.31 1661.93,-404.79 1680,-352 1682.34,-345.17 1686.06,-338.47 1690.16,-332.41"/>
<polygon fill="black" stroke="black" points="1693.21,-334.18 1696.32,-324.05 1687.57,-330.03 1693.21,-334.18"/>
</g>
<!-- Marco da Vida&#45;&gt;Lista de Tarefas -->
<g id="edge73" class="edge">
<title>Marco da Vida&#45;&gt;Lista de Tarefas</title>
<path fill="none" stroke="black" d="M1200.25,-448.05C1288.38,-445.36 1436.19,-435.93 1559,-404 1615.65,-389.27 1623.4,-366.91 1680,-352 1790.25,-322.95 1831.17,-371.1 1935,-324 1937.19,-323.01 1978.37,-284.9 2006.36,-258.88"/>
<polygon fill="black" stroke="black" points="2008.93,-261.28 2013.87,-251.9 2004.16,-256.15 2008.93,-261.28"/>
</g>
<!-- Marco da Vida&#45;&gt;Membro -->
<g id="edge71" class="edge">
<title>Marco da Vida&#45;&gt;Membro</title>
<path fill="none" stroke="black" d="M1106.78,-432.05C1098.35,-423.24 1087.9,-412.33 1078.68,-402.69"/>
<polygon fill="black" stroke="black" points="1081.05,-400.11 1071.61,-395.31 1075.99,-404.95 1081.05,-400.11"/>
</g>
<!-- Evento -->
<g id="node42" class="node">
<title>Evento</title>
<ellipse fill="none" stroke="black" cx="1452" cy="-378" rx="43.59" ry="18"/>
<text text-anchor="middle" x="1452" y="-374.3" font-family="Times,serif" font-size="14.00">Evento</text>
</g>
<!-- Marco da Vida&#45;&gt;Evento -->
<g id="edge72" class="edge">
<title>Marco da Vida&#45;&gt;Evento</title>
<path fill="none" stroke="black" d="M1178.07,-437.28C1241.36,-423.82 1344.2,-401.94 1404.24,-389.16"/>
<polygon fill="black" stroke="black" points="1405.16,-392.54 1414.21,-387.04 1403.7,-385.7 1405.16,-392.54"/>
</g>
<!-- Membro&#45;&gt;Indivíduo -->
<g id="edge69" class="edge">
<title>Membro&#45;&gt;Indivíduo</title>
<path fill="none" stroke="black" d="M1070.5,-360.39C1091.01,-335.13 1126,-284.75 1126,-235 1126,-235 1126,-235 1126,-161 1126,-52.3 1284.16,-26.37 1375.99,-20.47"/>
<polygon fill="black" stroke="black" points="1376.24,-23.96 1386.02,-19.89 1375.84,-16.97 1376.24,-23.96"/>
</g>
<!-- Matrícula -->
<g id="node20" class="node">
<title>Matrícula</title>
<ellipse fill="none" stroke="black" cx="2199" cy="-522" rx="55.79" ry="18"/>
<text text-anchor="middle" x="2199" y="-518.3" font-family="Times,serif" font-size="14.00">Matrícula</text>
</g>
<!-- Matrícula&#45;&gt;Necessidade -->
<g id="edge21" class="edge">
<title>Matrícula&#45;&gt;Necessidade</title>
<path fill="none" stroke="black" d="M2149.38,-530.54C2094.82,-539.45 2004.47,-552.85 1926,-558 1779.65,-567.61 1742.31,-568.16 1596,-558 1530.86,-553.48 1457.14,-542.61 1405.23,-533.99"/>
<polygon fill="black" stroke="black" points="1405.59,-530.5 1395.15,-532.29 1404.43,-537.4 1405.59,-530.5"/>
</g>
<!-- Estudante -->
<g id="node27" class="node">
<title>Estudante</title>
<ellipse fill="none" stroke="black" cx="2376" cy="-450" rx="58.49" ry="18"/>
<text text-anchor="middle" x="2376" y="-446.3" font-family="Times,serif" font-size="14.00">Estudante</text>
</g>
<!-- Matrícula&#45;&gt;Estudante -->
<g id="edge34" class="edge">
<title>Matrícula&#45;&gt;Estudante</title>
<path fill="none" stroke="black" d="M2233.13,-507.5C2261.23,-496.39 2301.27,-480.55 2331.82,-468.47"/>
<polygon fill="black" stroke="black" points="2333.36,-471.63 2341.37,-464.69 2330.79,-465.12 2333.36,-471.63"/>
</g>
<!-- Disciplina -->
<g id="node30" class="node">
<title>Disciplina</title>
<ellipse fill="none" stroke="black" cx="2199" cy="-450" rx="56.59" ry="18"/>
<text text-anchor="middle" x="2199" y="-446.3" font-family="Times,serif" font-size="14.00">Disciplina</text>
</g>
<!-- Matrícula&#45;&gt;Disciplina -->
<g id="edge33" class="edge">
<title>Matrícula&#45;&gt;Disciplina</title>
<path fill="none" stroke="black" d="M2199,-503.7C2199,-495.98 2199,-486.71 2199,-478.11"/>
<polygon fill="black" stroke="black" points="2202.5,-478.1 2199,-468.1 2195.5,-478.1 2202.5,-478.1"/>
</g>
<!-- Consumidor&#45;&gt;Indivíduo -->
<g id="edge22" class="edge">
<title>Consumidor&#45;&gt;Indivíduo</title>
<path fill="none" stroke="black" d="M211.68,-503.81C221.32,-477.4 238,-425.06 238,-379 238,-379 238,-379 238,-161 238,-45.38 1126.42,-23.61 1375.68,-19.77"/>
<polygon fill="black" stroke="black" points="1376.07,-23.27 1386.02,-19.62 1375.97,-16.27 1376.07,-23.27"/>
</g>
<!-- Pagamento -->
<g id="node22" class="node">
<title>Pagamento</title>
<ellipse fill="none" stroke="black" cx="405" cy="-666" rx="62.29" ry="18"/>
<text text-anchor="middle" x="405" y="-662.3" font-family="Times,serif" font-size="14.00">Pagamento</text>
</g>
<!-- Pagamento&#45;&gt;Compra -->
<g id="edge23" class="edge">
<title>Pagamento&#45;&gt;Compra</title>
<path fill="none" stroke="black" d="M391.93,-648.05C385.43,-639.63 377.44,-629.28 370.26,-619.97"/>
<polygon fill="black" stroke="black" points="372.83,-617.57 363.95,-611.79 367.29,-621.84 372.83,-617.57"/>
</g>
<!-- Cartão -->
<g id="node23" class="node">
<title>Cartão</title>
<ellipse fill="none" stroke="black" cx="459" cy="-594" rx="42.49" ry="18"/>
<text text-anchor="middle" x="459" y="-590.3" font-family="Times,serif" font-size="14.00">Cartão</text>
</g>
<!-- Pagamento&#45;&gt;Cartão -->
<g id="edge24" class="edge">
<title>Pagamento&#45;&gt;Cartão</title>
<path fill="none" stroke="black" d="M418.07,-648.05C424.74,-639.42 432.96,-628.76 440.28,-619.27"/>
<polygon fill="black" stroke="black" points="443.08,-621.36 446.42,-611.31 437.54,-617.09 443.08,-621.36"/>
</g>
<!-- Parcela -->
<g id="node24" class="node">
<title>Parcela</title>
<ellipse fill="none" stroke="black" cx="405" cy="-738" rx="44.69" ry="18"/>
<text text-anchor="middle" x="405" y="-734.3" font-family="Times,serif" font-size="14.00">Parcela</text>
</g>
<!-- Parcela&#45;&gt;Pagamento -->
<g id="edge25" class="edge">
<title>Parcela&#45;&gt;Pagamento</title>
<path fill="none" stroke="black" d="M405,-719.7C405,-711.98 405,-702.71 405,-694.11"/>
<polygon fill="black" stroke="black" points="408.5,-694.1 405,-684.1 401.5,-694.1 408.5,-694.1"/>
</g>
<!-- Estudante&#45;&gt;Indivíduo -->
<g id="edge30" class="edge">
<title>Estudante&#45;&gt;Indivíduo</title>
<path fill="none" stroke="black" d="M2425.38,-440.32C2447.64,-433.92 2472.37,-422.89 2488,-404 2516,-370.15 2507,-350.93 2507,-307 2507,-307 2507,-307 2507,-161 2507,-49.65 2384.53,-88.92 2276,-64 2129.36,-30.34 1673.18,-21.69 1503.99,-19.61"/>
<polygon fill="black" stroke="black" points="1504.03,-16.11 1493.99,-19.5 1503.95,-23.11 1504.03,-16.11"/>
</g>
<!-- Professor -->
<g id="node28" class="node">
<title>Professor</title>
<ellipse fill="none" stroke="black" cx="2424" cy="-378" rx="55.49" ry="18"/>
<text text-anchor="middle" x="2424" y="-374.3" font-family="Times,serif" font-size="14.00">Professor</text>
</g>
<!-- Professor&#45;&gt;Indivíduo -->
<g id="edge31" class="edge">
<title>Professor&#45;&gt;Indivíduo</title>
<path fill="none" stroke="black" d="M2415.1,-360.04C2402.24,-333.93 2380,-281.97 2380,-235 2380,-235 2380,-235 2380,-161 2380,-55.36 2265.58,-89.24 2163,-64 2039,-33.49 1656.74,-23.07 1504.01,-20.06"/>
<polygon fill="black" stroke="black" points="1503.92,-16.56 1493.85,-19.87 1503.78,-23.56 1503.92,-16.56"/>
</g>
<!-- Autor -->
<g id="node29" class="node">
<title>Autor</title>
<ellipse fill="none" stroke="black" cx="2195" cy="-162" rx="36.29" ry="18"/>
<text text-anchor="middle" x="2195" y="-158.3" font-family="Times,serif" font-size="14.00">Autor</text>
</g>
<!-- Autor&#45;&gt;Indivíduo -->
<g id="edge32" class="edge">
<title>Autor&#45;&gt;Indivíduo</title>
<path fill="none" stroke="black" d="M2188.97,-144.1C2179.87,-121.41 2160.3,-81.89 2129,-64 2075.57,-33.46 1664.46,-22.96 1503.93,-20"/>
<polygon fill="black" stroke="black" points="1503.79,-16.5 1493.72,-19.82 1503.66,-23.5 1503.79,-16.5"/>
</g>
<!-- Disciplina&#45;&gt;Lista de Tarefas -->
<g id="edge44" class="edge">
<title>Disciplina&#45;&gt;Lista de Tarefas</title>
<path fill="none" stroke="black" d="M2175.02,-433.62C2163.63,-425.62 2150.29,-415.19 2140,-404 2098.62,-359.04 2063.22,-296.3 2045.05,-261.28"/>
<polygon fill="black" stroke="black" points="2048.06,-259.49 2040.39,-252.18 2041.83,-262.68 2048.06,-259.49"/>
</g>
<!-- Disciplina&#45;&gt;Professor -->
<g id="edge36" class="edge">
<title>Disciplina&#45;&gt;Professor</title>
<path fill="none" stroke="black" d="M2241.77,-438.13C2274.19,-429.61 2319.7,-417.05 2359,-404 2366.18,-401.62 2373.73,-398.9 2381.04,-396.17"/>
<polygon fill="black" stroke="black" points="2382.71,-399.28 2390.81,-392.45 2380.22,-392.73 2382.71,-399.28"/>
</g>
<!-- Curso -->
<g id="node31" class="node">
<title>Curso</title>
<ellipse fill="none" stroke="black" cx="2199" cy="-378" rx="38.19" ry="18"/>
<text text-anchor="middle" x="2199" y="-374.3" font-family="Times,serif" font-size="14.00">Curso</text>
</g>
<!-- Disciplina&#45;&gt;Curso -->
<g id="edge35" class="edge">
<title>Disciplina&#45;&gt;Curso</title>
<path fill="none" stroke="black" d="M2199,-431.7C2199,-423.98 2199,-414.71 2199,-406.11"/>
<polygon fill="black" stroke="black" points="2202.5,-406.1 2199,-396.1 2195.5,-406.1 2202.5,-406.1"/>
</g>
<!-- Matéria -->
<g id="node32" class="node">
<title>Matéria</title>
<ellipse fill="none" stroke="black" cx="2303" cy="-378" rx="47.39" ry="18"/>
<text text-anchor="middle" x="2303" y="-374.3" font-family="Times,serif" font-size="14.00">Matéria</text>
</g>
<!-- Disciplina&#45;&gt;Matéria -->
<g id="edge37" class="edge">
<title>Disciplina&#45;&gt;Matéria</title>
<path fill="none" stroke="black" d="M2222.08,-433.46C2236.82,-423.54 2256.12,-410.56 2272.16,-399.75"/>
<polygon fill="black" stroke="black" points="2274.36,-402.5 2280.7,-394.01 2270.45,-396.69 2274.36,-402.5"/>
</g>
<!-- Lista de Leitura -->
<g id="node33" class="node">
<title>Lista de Leitura</title>
<ellipse fill="none" stroke="black" cx="2225" cy="-306" rx="84.49" ry="18"/>
<text text-anchor="middle" x="2225" y="-302.3" font-family="Times,serif" font-size="14.00">Lista de Leitura</text>
</g>
<!-- Disciplina&#45;&gt;Lista de Leitura -->
<g id="edge40" class="edge">
<title>Disciplina&#45;&gt;Lista de Leitura</title>
<path fill="none" stroke="black" d="M2175.83,-433.35C2166.59,-425.7 2156.97,-415.64 2152,-404 2142.92,-382.75 2140.73,-372.18 2152,-352 2157.67,-341.85 2166.68,-333.7 2176.46,-327.28"/>
<polygon fill="black" stroke="black" points="2178.39,-330.2 2185.18,-322.07 2174.8,-324.19 2178.39,-330.2"/>
</g>
<!-- Curso&#45;&gt;Lista de Leitura -->
<g id="edge42" class="edge">
<title>Curso&#45;&gt;Lista de Leitura</title>
<path fill="none" stroke="black" d="M2205.29,-360.05C2208.22,-352.18 2211.77,-342.62 2215.05,-333.79"/>
<polygon fill="black" stroke="black" points="2218.38,-334.87 2218.58,-324.28 2211.82,-332.43 2218.38,-334.87"/>
</g>
<!-- Matéria&#45;&gt;Lista de Leitura -->
<g id="edge41" class="edge">
<title>Matéria&#45;&gt;Lista de Leitura</title>
<path fill="none" stroke="black" d="M2285.3,-361.12C2275.22,-352.07 2262.4,-340.57 2251.18,-330.49"/>
<polygon fill="black" stroke="black" points="2253.5,-327.87 2243.72,-323.8 2248.82,-333.08 2253.5,-327.87"/>
</g>
<!-- Lista de Leitura&#45;&gt;Lista de Tarefas -->
<g id="edge43" class="edge">
<title>Lista de Leitura&#45;&gt;Lista de Tarefas</title>
<path fill="none" stroke="black" d="M2184.07,-290.15C2154.39,-279.39 2114.06,-264.76 2082.4,-253.28"/>
<polygon fill="black" stroke="black" points="2083.47,-249.94 2072.87,-249.82 2081.08,-256.52 2083.47,-249.94"/>
</g>
<!-- Livro -->
<g id="node34" class="node">
<title>Livro</title>
<ellipse fill="none" stroke="black" cx="2205" cy="-234" rx="34.39" ry="18"/>
<text text-anchor="middle" x="2205" y="-230.3" font-family="Times,serif" font-size="14.00">Livro</text>
</g>
<!-- Lista de Leitura&#45;&gt;Livro -->
<g id="edge38" class="edge">
<title>Lista de Leitura&#45;&gt;Livro</title>
<path fill="none" stroke="black" d="M2220.06,-287.7C2217.83,-279.9 2215.15,-270.51 2212.67,-261.83"/>
<polygon fill="black" stroke="black" points="2216,-260.76 2209.89,-252.1 2209.27,-262.68 2216,-260.76"/>
</g>
<!-- Livro&#45;&gt;Autor -->
<g id="edge39" class="edge">
<title>Livro&#45;&gt;Autor</title>
<path fill="none" stroke="black" d="M2202.53,-215.7C2201.43,-207.98 2200.1,-198.71 2198.87,-190.11"/>
<polygon fill="black" stroke="black" points="2202.32,-189.51 2197.44,-180.1 2195.39,-190.5 2202.32,-189.51"/>
</g>
<!-- Fiel&#45;&gt;Indivíduo -->
<g id="edge45" class="edge">
<title>Fiel&#45;&gt;Indivíduo</title>
<path fill="none" stroke="black" d="M1654.55,-218.63C1615.53,-182.32 1512.71,-86.65 1464.99,-42.25"/>
<polygon fill="black" stroke="black" points="1467.26,-39.58 1457.55,-35.33 1462.49,-44.71 1467.26,-39.58"/>
</g>
<!-- Ano -->
<g id="node37" class="node">
<title>Ano</title>
<ellipse fill="none" stroke="black" cx="1873" cy="-378" rx="28.7" ry="18"/>
<text text-anchor="middle" x="1873" y="-374.3" font-family="Times,serif" font-size="14.00">Ano</text>
</g>
<!-- Plano&#45;&gt;Ano -->
<g id="edge46" class="edge">
<title>Plano&#45;&gt;Ano</title>
<path fill="none" stroke="black" d="M1784.82,-435.54C1799.14,-426.67 1818.25,-414.74 1835,-404 1838.42,-401.81 1841.99,-399.49 1845.53,-397.18"/>
<polygon fill="black" stroke="black" points="1847.67,-399.96 1854.11,-391.55 1843.83,-394.11 1847.67,-399.96"/>
</g>
<!-- Mês -->
<g id="node38" class="node">
<title>Mês</title>
<ellipse fill="none" stroke="black" cx="1723" cy="-378" rx="30.59" ry="18"/>
<text text-anchor="middle" x="1723" y="-374.3" font-family="Times,serif" font-size="14.00">Mês</text>
</g>
<!-- Plano&#45;&gt;Mês -->
<g id="edge47" class="edge">
<title>Plano&#45;&gt;Mês</title>
<path fill="none" stroke="black" d="M1753.52,-432.41C1748.74,-424.04 1742.83,-413.71 1737.5,-404.37"/>
<polygon fill="black" stroke="black" points="1740.41,-402.42 1732.41,-395.47 1734.33,-405.89 1740.41,-402.42"/>
</g>
<!-- Dia -->
<g id="node39" class="node">
<title>Dia</title>
<ellipse fill="none" stroke="black" cx="1799" cy="-378" rx="27" ry="18"/>
<text text-anchor="middle" x="1799" y="-374.3" font-family="Times,serif" font-size="14.00">Dia</text>
</g>
<!-- Plano&#45;&gt;Dia -->
<g id="edge48" class="edge">
<title>Plano&#45;&gt;Dia</title>
<path fill="none" stroke="black" d="M1771.53,-432.41C1775.84,-424.04 1781.15,-413.71 1785.95,-404.37"/>
<polygon fill="black" stroke="black" points="1789.07,-405.96 1790.53,-395.47 1782.84,-402.76 1789.07,-405.96"/>
</g>
<!-- Mês&#45;&gt;Vida Sacramental -->
<g id="edge52" class="edge">
<title>Mês&#45;&gt;Vida Sacramental</title>
<path fill="none" stroke="black" d="M1720.34,-360.05C1719.13,-352.35 1717.66,-343.03 1716.3,-334.36"/>
<polygon fill="black" stroke="black" points="1719.72,-333.61 1714.71,-324.28 1712.81,-334.7 1719.72,-333.61"/>
</g>
<!-- Devoção -->
<g id="node40" class="node">
<title>Devoção</title>
<ellipse fill="none" stroke="black" cx="1873" cy="-306" rx="50.09" ry="18"/>
<text text-anchor="middle" x="1873" y="-302.3" font-family="Times,serif" font-size="14.00">Devoção</text>
</g>
<!-- Dia&#45;&gt;Devoção -->
<g id="edge50" class="edge">
<title>Dia&#45;&gt;Devoção</title>
<path fill="none" stroke="black" d="M1813.98,-362.83C1823.86,-353.49 1837.04,-341.02 1848.43,-330.24"/>
<polygon fill="black" stroke="black" points="1851.12,-332.52 1855.98,-323.1 1846.31,-327.43 1851.12,-332.52"/>
</g>
<!-- Devoção&#45;&gt;Lista de Tarefas -->
<g id="edge59" class="edge">
<title>Devoção&#45;&gt;Lista de Tarefas</title>
<path fill="none" stroke="black" d="M1903.28,-291.67C1927.14,-281.17 1960.75,-266.37 1987.64,-254.53"/>
<polygon fill="black" stroke="black" points="1989.1,-257.71 1996.84,-250.48 1986.28,-251.3 1989.1,-257.71"/>
</g>
<!-- Devoção&#45;&gt;Lista de Leitura -->
<g id="edge60" class="edge">
<title>Devoção&#45;&gt;Lista de Leitura</title>
<path fill="none" stroke="black" d="M1923.19,-306C1992.2,-306 2061.21,-306 2130.23,-306"/>
<polygon fill="black" stroke="black" points="2130.41,-309.5 2140.41,-306 2130.41,-302.5 2130.41,-309.5"/>
</g>
<!-- Devoção&#45;&gt;Fiel -->
<g id="edge54" class="edge">
<title>Devoção&#45;&gt;Fiel</title>
<path fill="none" stroke="black" d="M1838.1,-292.97C1800.7,-280.07 1741.68,-259.72 1704.45,-246.88"/>
<polygon fill="black" stroke="black" points="1705.16,-243.42 1694.56,-243.47 1702.87,-250.04 1705.16,-243.42"/>
</g>
<!-- Vida Sacramental&#45;&gt;Fiel -->
<g id="edge55" class="edge">
<title>Vida Sacramental&#45;&gt;Fiel</title>
<path fill="none" stroke="black" d="M1701.83,-288.05C1696.81,-279.68 1690.64,-269.4 1685.08,-260.13"/>
<polygon fill="black" stroke="black" points="1687.93,-258.08 1679.78,-251.31 1681.93,-261.68 1687.93,-258.08"/>
</g>
<!-- Evento&#45;&gt;Plano de Vida -->
<g id="edge58" class="edge">
<title>Evento&#45;&gt;Plano de Vida</title>
<path fill="none" stroke="black" d="M1473.38,-393.84C1501.45,-413.2 1552.41,-447.91 1597,-476 1609.74,-484.02 1623.88,-492.51 1636.48,-499.93"/>
<polygon fill="black" stroke="black" points="1634.94,-503.08 1645.34,-505.11 1638.48,-497.04 1634.94,-503.08"/>
</g>
<!-- Participante -->
<g id="node43" class="node">
<title>Participante</title>
<ellipse fill="none" stroke="black" cx="1292" cy="-306" rx="67.69" ry="18"/>
<text text-anchor="middle" x="1292" y="-302.3" font-family="Times,serif" font-size="14.00">Participante</text>
</g>
<!-- Evento&#45;&gt;Participante -->
<g id="edge64" class="edge">
<title>Evento&#45;&gt;Participante</title>
<path fill="none" stroke="black" d="M1423.03,-364.32C1398.46,-353.57 1362.87,-338 1334.98,-325.8"/>
<polygon fill="black" stroke="black" points="1336.03,-322.44 1325.46,-321.64 1333.22,-328.86 1336.03,-322.44"/>
</g>
<!-- Agendamento -->
<g id="node44" class="node">
<title>Agendamento</title>
<ellipse fill="none" stroke="black" cx="1452" cy="-306" rx="74.99" ry="18"/>
<text text-anchor="middle" x="1452" y="-302.3" font-family="Times,serif" font-size="14.00">Agendamento</text>
</g>
<!-- Evento&#45;&gt;Agendamento -->
<g id="edge66" class="edge">
<title>Evento&#45;&gt;Agendamento</title>
<path fill="none" stroke="black" d="M1452,-359.7C1452,-351.98 1452,-342.71 1452,-334.11"/>
<polygon fill="black" stroke="black" points="1455.5,-334.1 1452,-324.1 1448.5,-334.1 1455.5,-334.1"/>
</g>
<!-- Calendário -->
<g id="node45" class="node">
<title>Calendário</title>
<ellipse fill="none" stroke="black" cx="1469" cy="-234" rx="61.19" ry="18"/>
<text text-anchor="middle" x="1469" y="-230.3" font-family="Times,serif" font-size="14.00">Calendário</text>
</g>
<!-- Evento&#45;&gt;Calendário -->
<g id="edge67" class="edge">
<title>Evento&#45;&gt;Calendário</title>
<path fill="none" stroke="black" d="M1484.3,-365.77C1503.02,-357.4 1525.01,-343.93 1536,-324 1543.73,-309.99 1542.97,-302.4 1536,-288 1529.66,-274.89 1518.33,-264.05 1506.76,-255.65"/>
<polygon fill="black" stroke="black" points="1508.62,-252.68 1498.37,-249.97 1504.7,-258.48 1508.62,-252.68"/>
</g>
<!-- Participante&#45;&gt;Indivíduo -->
<g id="edge63" class="edge">
<title>Participante&#45;&gt;Indivíduo</title>
<path fill="none" stroke="black" d="M1300.81,-287.97C1325.7,-239.88 1396.61,-102.85 1426.48,-45.13"/>
<polygon fill="black" stroke="black" points="1429.74,-46.43 1431.23,-35.94 1423.53,-43.22 1429.74,-46.43"/>
</g>
<!-- Agendamento&#45;&gt;Calendário -->
<g id="edge65" class="edge">
<title>Agendamento&#45;&gt;Calendário</title>
<path fill="none" stroke="black" d="M1456.2,-287.7C1458.1,-279.9 1460.38,-270.51 1462.48,-261.83"/>
<polygon fill="black" stroke="black" points="1465.89,-262.65 1464.85,-252.1 1459.08,-261 1465.89,-262.65"/>
</g>
<!-- Estoque -->
<g id="node46" class="node">
<title>Estoque</title>
<ellipse fill="none" stroke="black" cx="65" cy="-594" rx="48.99" ry="18"/>
<text text-anchor="middle" x="65" y="-590.3" font-family="Times,serif" font-size="14.00">Estoque</text>
</g>
<!-- Estoque&#45;&gt;Produto -->
<g id="edge68" class="edge">
<title>Estoque&#45;&gt;Produto</title>
<path fill="none" stroke="black" d="M93.94,-579.33C103.91,-575.12 115.27,-570.84 126,-568 193.15,-550.23 214.07,-566.58 281,-548 287.72,-546.14 294.67,-543.62 301.31,-540.91"/>
<polygon fill="black" stroke="black" points="302.95,-544.01 310.75,-536.84 300.18,-537.58 302.95,-544.01"/>
</g>
<!-- Família -->
<g id="node47" class="node">
<title>Família</title>
<ellipse fill="none" stroke="black" cx="983" cy="-450" rx="44.69" ry="18"/>
<text text-anchor="middle" x="983" y="-446.3" font-family="Times,serif" font-size="14.00">Família</text>
</g>
<!-- Família&#45;&gt;Membro -->
<g id="edge70" class="edge">
<title>Família&#45;&gt;Membro</title>
<path fill="none" stroke="black" d="M999.56,-433.12C1009.11,-423.96 1021.28,-412.29 1031.87,-402.13"/>
<polygon fill="black" stroke="black" points="1034.45,-404.51 1039.25,-395.06 1029.61,-399.46 1034.45,-404.51"/>
</g>
</g>
</svg>
