<?xml version="1.0" encoding="UTF-8" standalone="no"?>
<!-- Created with Inkscape (http://www.inkscape.org/) -->

<svg
   width="42"
   height="42"
   viewBox="0 0 11.1125 11.1125"
   version="1.1"
   id="svg86350"
   inkscape:version="1.2.2 (b0a8486541, 2022-12-01)"
   sodipodi:docname="despesas.svg"
   xmlns:inkscape="http://www.inkscape.org/namespaces/inkscape"
   xmlns:sodipodi="http://sodipodi.sourceforge.net/DTD/sodipodi-0.dtd"
   xmlns="http://www.w3.org/2000/svg"
   xmlns:svg="http://www.w3.org/2000/svg">
  <sodipodi:namedview
     id="namedview86352"
     pagecolor="#ffffff"
     bordercolor="#000000"
     borderopacity="0.25"
     inkscape:showpageshadow="2"
     inkscape:pageopacity="0.0"
     inkscape:pagecheckerboard="0"
     inkscape:deskcolor="#d1d1d1"
     inkscape:document-units="px"
     showgrid="false"
     inkscape:zoom="2.5306698"
     inkscape:cx="93.651097"
     inkscape:cy="-5.3345561"
     inkscape:window-width="1373"
     inkscape:window-height="538"
     inkscape:window-x="148"
     inkscape:window-y="23"
     inkscape:window-maximized="0"
     inkscape:current-layer="layer1" />
  <defs
     id="defs86347" />
  <g
     inkscape:label="Layer 1"
     inkscape:groupmode="layer"
     id="layer1">
    <g
       id="g86283"
       transform="matrix(0.98853112,0,0,0.98853112,-618.84615,-577.47826)"
       style="stroke-width:1.0116">
      <rect
         style="fill:#ffdfd6;fill-opacity:1;stroke:#dfa4ad;stroke-width:0.267653;stroke-linejoin:round;stroke-dasharray:none;stroke-opacity:1"
         id="rect3956"
         width="10.973774"
         height="10.973774"
         x="626.15979"
         y="584.31195"
         rx="5.5505457"
         ry="5.5505457" />
      <path
         id="path3960"
         style="opacity:1;fill:#ffffff;stroke:#472f50;stroke-width:0.535306;stroke-linecap:round;stroke-linejoin:round;stroke-opacity:1"
         d="m 629.07652,587.26504 v 4.25765 h -0.73622 a 0.17931614,0.17931614 0 0 0 -0.11024,0.32074 l 3.00549,2.34282 a 0.66921647,0.66921647 0 0 0 0.8229,-3e-5 l 3.00493,-2.34276 a 0.17933831,0.17933831 0 0 0 -0.11026,-0.32077 h -0.73621 v -4.25765 a 0.92476599,0.92476599 0 0 0 -0.92477,-0.92477 h -3.29085 a 0.92476599,0.92476599 0 0 0 -0.92477,0.92477 z" />
      <path
         style="fill:none;stroke:#b09195;stroke-width:0.40148;stroke-linecap:round;stroke-linejoin:round;stroke-dasharray:none;stroke-opacity:1"
         d="m 630.849,590.03319 h 1.94517"
         id="path3962"
         sodipodi:nodetypes="cc" />
      <path
         style="fill:none;stroke:#b09195;stroke-width:0.40148;stroke-linecap:round;stroke-linejoin:round;stroke-dasharray:none;stroke-opacity:1"
         d="m 630.849,591.01328 h 2.29506"
         id="path3964"
         sodipodi:nodetypes="cc" />
      <path
         style="fill:none;stroke:#b09195;stroke-width:0.40148;stroke-linecap:round;stroke-linejoin:round;stroke-dasharray:none;stroke-opacity:1"
         d="m 630.849,592.04817 h 1.81233"
         id="path3966"
         sodipodi:nodetypes="cc" />
      <g
         aria-label="$"
         id="text3970"
         style="font-weight:bold;font-size:2.35991px;font-family:Poppins;-inkscape-font-specification:'Poppins Bold';opacity:1;fill:#666666;fill-opacity:1;stroke-width:0.535305;stroke-linecap:round;stroke-linejoin:round">
        <path
           d="m 632.29451,588.76949 q 0,0.1298 -0.0684,0.24071 -0.0661,0.10856 -0.19823,0.17936 -0.1298,0.0684 -0.30915,0.0755 v 0.19116 h -0.15104 v -0.19351 q -0.25015,-0.0212 -0.40354,-0.14868 -0.15339,-0.12979 -0.16283,-0.35163 h 0.4295 q 0.0142,0.1416 0.13687,0.18172 v -0.37287 q -0.18407,-0.0472 -0.29498,-0.092 -0.10856,-0.0448 -0.19116,-0.14395 -0.0826,-0.0991 -0.0826,-0.27139 0,-0.21475 0.15811,-0.34455 0.16047,-0.12979 0.41062,-0.14631 v -0.19115 h 0.15104 v 0.19115 q 0.24779,0.0189 0.39174,0.14395 0.14396,0.12508 0.16048,0.34691 h -0.43187 q -0.0141,-0.12743 -0.12035,-0.16519 v 0.36578 q 0.19587,0.0543 0.30207,0.0968 0.10619,0.0425 0.18879,0.14159 0.085,0.0968 0.085,0.26667 z m -0.86845,-0.72449 q 0,0.059 0.0354,0.0991 0.0378,0.0401 0.10619,0.0708 v -0.32803 q -0.0661,0.0118 -0.10383,0.0519 -0.0378,0.0377 -0.0378,0.10619 z m 0.29263,0.90621 q 0.0708,-0.0118 0.11091,-0.0566 0.0425,-0.0448 0.0425,-0.11092 0,-0.0613 -0.0401,-0.0991 -0.0377,-0.0401 -0.11327,-0.0684 z"
           id="path78780"
           style="fill:#666666;fill-opacity:1;stroke-width:0.535305" />
      </g>
      <circle
         style="opacity:1;fill:#b09195;fill-opacity:1;stroke:none;stroke-width:0.535306;stroke-linecap:round;stroke-linejoin:round;stroke-dasharray:none;stroke-opacity:1"
         id="circle3972"
         cx="630.20691"
         cy="590.0332"
         r="0.25284615" />
      <circle
         style="opacity:1;fill:#b09195;fill-opacity:1;stroke:none;stroke-width:0.535306;stroke-linecap:round;stroke-linejoin:round;stroke-dasharray:none;stroke-opacity:1"
         id="circle3974"
         cx="630.20691"
         cy="590.99188"
         r="0.25284615" />
      <circle
         style="opacity:1;fill:#b09195;fill-opacity:1;stroke:none;stroke-width:0.535306;stroke-linecap:round;stroke-linejoin:round;stroke-dasharray:none;stroke-opacity:1"
         id="circle3976"
         cx="630.20691"
         cy="592.00726"
         r="0.25284615" />
    </g>
  </g>
</svg>
